<?xml version="1.0" encoding="UTF-8"?>
<svg xmlns="http://www.w3.org/2000/svg" version="1.1" viewBox="0 0 8192 8192">
  <defs>
    <style>
      .cls-1 {
        fill: #fff4a1;
      }

      .cls-2 {
        fill: #ff8080;
      }

      .cls-3 {
        fill: #328af1;
      }

      .cls-4 {
        fill: #fff;
      }

      .cls-5 {
        fill: #a6bfff;
      }

      .cls-6 {
        fill: #131212;
        stroke: #000;
        stroke-miterlimit: 10;
        stroke-width: 1px;
      }
    </style>
  </defs>
  <!-- Generator: Adobe Illustrator 28.6.0, SVG Export Plug-In . SVG Version: 1.2.0 Build 709)  -->
  <g>
    <g id="Calque_1">
      <g id="Calque_2">
        <rect class="cls-6" width="8192" height="8192"/>
      </g>
      <g>
        <path class="cls-3" d="M6679.5,3654.4H1512.5c-347.1,0-628.5,297.7-628.5,665v1959.3c0,367.3,281.4,665,628.5,665h5167.1c347.1,0,628.5-297.7,628.5-665v-1959.3c0-367.3-281.4-665-628.5-665h0ZM1736.7,4563.1c0-176.6,70.6-291.4,244.3-291.4s244.3,117.7,244.3,291.4v238.4c-209,61.8-385.6,223.7-488.6,485.7v-724.1h0ZM3137.9,6032c0,173.7-70.6,291.4-244.3,291.4s-244.3-135.4-244.3-291.4v-476.9c0-156-55.9-259-211.9-259s-211.9,61.8-211.9,259v476.9c0,173.7-70.6,291.4-244.3,291.4s-244.3-117.7-244.3-291.4v-409.2c0-188.4,70.6-368,200.2-506.3,156-164.8,359.1-229.6,571.1-220.8,394.4,14.7,629.9,279.6,629.9,659.4v476.9h0ZM3314.5,5681.7v-476.9c0-173.7,67.7-291.4,244.3-291.4s32.4,0,41.2,2.9c141.3,20.6,203.1,126.6,203.1,288.5v476.9c0,156,55.9,259,211.9,259s47.1-2.9,70.6-8.8c-38.3,188.4-150.1,362.1-365,362.1s-406.2-365-406.2-612.3h0ZM4715.6,6011.4c0,173.7-70.6,291.4-244.3,291.4s-197.2-55.9-229.6-167.8c-67.7,144.2-217.8,206.1-406.2,206.1,391.5-141.3,391.5-576.9,391.5-659.4v-476.9c0-173.7,67.7-291.4,244.3-291.4s244.3,135.4,244.3,291.4v806.6h0ZM5804.7,6338.1c-141.3,0-276.7-41.2-370.9-126.6,38.3-61.8,76.5-179.6,97.1-306.1,38.3,20.6,76.5,35.3,144.2,35.3,197.2,0,291.4-153.1,291.4-332.6s-94.2-332.6-291.4-332.6-294.4,147.2-294.4,332.6,35.3,500.4-58.9,618.2c-41.2,50-103,76.5-185.4,76.5-173.7,0-244.3-117.7-244.3-291.4v-1463c0-173.7,70.6-291.4,244.3-291.4s244.3,114.8,244.3,291.4v529.9c91.3-138.3,238.4-206.1,406.2-206.1,447.4,0,668.2,320.9,668.2,735.9s-214.9,730-650.5,730Z"/>
        <g>
          <path class="cls-4" d="M884,1790v-415.3h1546.6v415.3H884ZM1422.4,3379.6v-1813h461.1v1813h-461.1Z"/>
          <path class="cls-4" d="M2599.5,1790v-415.3h1097v415.3h-1097,0ZM2599.5,3379.6v-415.3h1097v415.3h-1097,0ZM2917.5,3236.4v-1718.5h461.1v1718.5h-461.1Z"/>
          <path class="cls-4" d="M5729.9,3379.6v-2004.9h790.5c219.5,0,395.7,56.8,528.4,170.4,132.7,113.6,199.1,276.4,199.1,488.3s-66.4,380.9-199.1,495.5c-132.7,114.6-308.8,171.8-528.4,171.8h-581.4v-380.9h558.5c84,0,151.8-25.8,203.3-77.3,51.6-51.6,77.3-118.4,77.3-200.5s-25.8-149.9-77.3-203.3c-51.6-53.5-119.3-80.2-203.3-80.2h-498.3l189-171.9v1792.9h-458.3ZM6786.8,3379.6l-438.2-876.4h492.6l466.8,876.4h-521.3Z"/>
          <g>
            <polygon class="cls-4" points="4008.6 2130.9 4008.6 2526.1 4226.3 2526.1 4855.8 2526.1 5326.1 2526.1 5326.1 2130.9 4226.3 2130.9 4008.6 2130.9"/>
            <path class="cls-4" d="M4358.1,1331.8c-101.2,0-184.7,32.9-250.6,98.8-65.9,65.9-98.8,149.4-98.8,250.6v65.9h1377.6v-415.3h-1028.2Z"/>
            <path class="cls-4" d="M4518.4,2921.3h-509.8v65.9c0,101.2,32.9,184.7,98.8,250.6s149.4,98.8,250.6,98.8h1028.2v-415.3h-867.8Z"/>
            <g>
              <path class="cls-5" d="M4008.6,2819.7v167.5c0,101.2,32.9,184.7,98.8,250.6,65.9,65.9,149.4,98.8,250.6,98.8h3.3v-516.9"/>
              <rect class="cls-1" x="4008.6" y="2029.2" width="352.8" height="598.5"/>
              <path class="cls-2" d="M4361.4,1848.7v-516.9h-3.3c-101.2,0-184.7,32.9-250.6,98.8-65.9,65.9-98.8,149.4-98.8,250.6v167.5"/>
            </g>
          </g>
        </g>
      </g>
    </g>
  </g>
</svg>